<mxfile host="app.diagrams.net" modified="2024-03-29T19:15:23.900Z" agent="Mozilla/5.0 (X11; Linux x86_64) AppleWebKit/537.36 (KHTML, like Gecko) Chrome/122.0.0.0 Safari/537.36" etag="lYkD-CBeHFPXrk4RBXV7" version="24.0.7" type="device">
  <diagram name="Страница — 1" id="72SPT2geHqqNimbWTybM">
    <mxGraphModel dx="2408" dy="623" grid="1" gridSize="10" guides="1" tooltips="1" connect="1" arrows="1" fold="1" page="1" pageScale="1" pageWidth="827" pageHeight="1169" background="none" math="0" shadow="0">
      <root>
        <mxCell id="0" />
        <mxCell id="1" parent="0" />
        <mxCell id="BPb5hYeniMufHD9t9Q5h-2" value="Shoggoth" style="text;html=1;align=center;verticalAlign=middle;whiteSpace=wrap;rounded=1;fillColor=#d0cee2;strokeColor=#56517e;" parent="1" vertex="1">
          <mxGeometry x="-220" y="890" width="60" height="30" as="geometry" />
        </mxCell>
        <mxCell id="BPb5hYeniMufHD9t9Q5h-4" style="rounded=1;orthogonalLoop=1;jettySize=auto;html=1;dashed=1;fillColor=#d0cee2;strokeColor=#56517e;" parent="1" source="BPb5hYeniMufHD9t9Q5h-2" target="BPb5hYeniMufHD9t9Q5h-3" edge="1">
          <mxGeometry relative="1" as="geometry">
            <mxPoint x="178.25" y="360" as="sourcePoint" />
          </mxGeometry>
        </mxCell>
        <mxCell id="BPb5hYeniMufHD9t9Q5h-3" value="ShogothApplication" style="text;html=1;align=center;verticalAlign=middle;whiteSpace=wrap;rounded=1;fillColor=#ffe6cc;strokeColor=#d79b00;" parent="1" vertex="1">
          <mxGeometry x="-400" y="890" width="120" height="30" as="geometry" />
        </mxCell>
        <mxCell id="BPb5hYeniMufHD9t9Q5h-6" style="rounded=1;orthogonalLoop=1;jettySize=auto;html=1;dashed=1;fillColor=#ffe6cc;strokeColor=#d79b00;" parent="1" source="BPb5hYeniMufHD9t9Q5h-14" target="BPb5hYeniMufHD9t9Q5h-5" edge="1">
          <mxGeometry relative="1" as="geometry">
            <mxPoint x="50" y="325.5" as="targetPoint" />
          </mxGeometry>
        </mxCell>
        <mxCell id="BPb5hYeniMufHD9t9Q5h-5" value="Server" style="text;html=1;align=center;verticalAlign=middle;whiteSpace=wrap;rounded=1;fillColor=#ffe6cc;strokeColor=#d79b00;" parent="1" vertex="1">
          <mxGeometry x="-200" y="690" width="60" height="30" as="geometry" />
        </mxCell>
        <mxCell id="BPb5hYeniMufHD9t9Q5h-8" style="rounded=1;orthogonalLoop=1;jettySize=auto;html=1;dashed=1;fillColor=#ffe6cc;strokeColor=#d79b00;" parent="1" source="BPb5hYeniMufHD9t9Q5h-14" target="BPb5hYeniMufHD9t9Q5h-7" edge="1">
          <mxGeometry relative="1" as="geometry">
            <mxPoint x="30" y="305.5" as="targetPoint" />
          </mxGeometry>
        </mxCell>
        <mxCell id="BPb5hYeniMufHD9t9Q5h-7" value="Teacher" style="text;html=1;align=center;verticalAlign=middle;whiteSpace=wrap;rounded=1;fillColor=#ffe6cc;strokeColor=#d79b00;" parent="1" vertex="1">
          <mxGeometry x="-425" y="690" width="60" height="30" as="geometry" />
        </mxCell>
        <mxCell id="BPb5hYeniMufHD9t9Q5h-9" value="Application" style="text;html=1;align=center;verticalAlign=middle;whiteSpace=wrap;rounded=1;fillColor=#d5e8d4;strokeColor=#82b366;" parent="1" vertex="1">
          <mxGeometry x="-1155" y="322.16" width="80" height="30" as="geometry" />
        </mxCell>
        <mxCell id="BPb5hYeniMufHD9t9Q5h-12" style="rounded=1;orthogonalLoop=1;jettySize=auto;html=1;dashed=1;fillColor=#ffe6cc;strokeColor=#d79b00;" parent="1" source="BPb5hYeniMufHD9t9Q5h-14" target="BPb5hYeniMufHD9t9Q5h-11" edge="1">
          <mxGeometry relative="1" as="geometry">
            <mxPoint x="220" y="665.5" as="targetPoint" />
          </mxGeometry>
        </mxCell>
        <mxCell id="BPb5hYeniMufHD9t9Q5h-11" value="Ui" style="text;html=1;align=center;verticalAlign=middle;whiteSpace=wrap;rounded=1;fillColor=#ffe6cc;strokeColor=#d79b00;" parent="1" vertex="1">
          <mxGeometry x="-540" y="690" width="60" height="30" as="geometry" />
        </mxCell>
        <mxCell id="BPb5hYeniMufHD9t9Q5h-15" style="rounded=1;orthogonalLoop=1;jettySize=auto;html=1;dashed=1;fillColor=#ffe6cc;strokeColor=#d79b00;" parent="1" source="BPb5hYeniMufHD9t9Q5h-3" target="BPb5hYeniMufHD9t9Q5h-14" edge="1">
          <mxGeometry relative="1" as="geometry">
            <mxPoint x="167" y="490" as="targetPoint" />
          </mxGeometry>
        </mxCell>
        <mxCell id="BPb5hYeniMufHD9t9Q5h-14" value="Loop" style="text;html=1;align=center;verticalAlign=middle;whiteSpace=wrap;rounded=1;fillColor=#ffe6cc;strokeColor=#d79b00;" parent="1" vertex="1">
          <mxGeometry x="-370" y="760" width="60" height="30" as="geometry" />
        </mxCell>
        <mxCell id="BPb5hYeniMufHD9t9Q5h-17" style="rounded=1;orthogonalLoop=1;jettySize=auto;html=1;dashed=1;fillColor=#ffe6cc;strokeColor=#d79b00;" parent="1" source="BPb5hYeniMufHD9t9Q5h-14" target="BPb5hYeniMufHD9t9Q5h-16" edge="1">
          <mxGeometry relative="1" as="geometry">
            <mxPoint x="90" y="315.5" as="targetPoint" />
          </mxGeometry>
        </mxCell>
        <mxCell id="BPb5hYeniMufHD9t9Q5h-16" value="Processor" style="text;html=1;align=center;verticalAlign=middle;whiteSpace=wrap;rounded=1;fillColor=#ffe6cc;strokeColor=#d79b00;" parent="1" vertex="1">
          <mxGeometry x="-310" y="690" width="60" height="30" as="geometry" />
        </mxCell>
        <mxCell id="BPb5hYeniMufHD9t9Q5h-19" style="rounded=1;orthogonalLoop=1;jettySize=auto;html=1;fillColor=#d5e8d4;strokeColor=#82b366;edgeStyle=orthogonalEdgeStyle;" parent="1" source="Z55XJMEU9uU-6QPWOgbq-85" target="BPb5hYeniMufHD9t9Q5h-7" edge="1">
          <mxGeometry relative="1" as="geometry">
            <mxPoint x="-820" y="805" as="sourcePoint" />
            <Array as="points">
              <mxPoint x="-925" y="660" />
              <mxPoint x="-410" y="660" />
            </Array>
          </mxGeometry>
        </mxCell>
        <mxCell id="BPb5hYeniMufHD9t9Q5h-24" style="rounded=1;orthogonalLoop=1;jettySize=auto;html=1;fillColor=#d5e8d4;strokeColor=#82b366;edgeStyle=orthogonalEdgeStyle;" parent="1" source="Z55XJMEU9uU-6QPWOgbq-85" target="BPb5hYeniMufHD9t9Q5h-14" edge="1">
          <mxGeometry relative="1" as="geometry">
            <mxPoint x="-820" y="805" as="sourcePoint" />
            <Array as="points">
              <mxPoint x="-925" y="660" />
              <mxPoint x="-340" y="660" />
            </Array>
          </mxGeometry>
        </mxCell>
        <mxCell id="BPb5hYeniMufHD9t9Q5h-20" style="rounded=1;orthogonalLoop=1;jettySize=auto;html=1;fillColor=#b1ddf0;strokeColor=#10739e;" parent="1" source="Z55XJMEU9uU-6QPWOgbq-20" target="BPb5hYeniMufHD9t9Q5h-11" edge="1">
          <mxGeometry relative="1" as="geometry">
            <mxPoint x="-210" y="540" as="sourcePoint" />
            <mxPoint x="-60" y="400" as="targetPoint" />
          </mxGeometry>
        </mxCell>
        <mxCell id="BPb5hYeniMufHD9t9Q5h-22" style="rounded=1;orthogonalLoop=1;jettySize=auto;html=1;fillColor=#d5e8d4;strokeColor=#82b366;edgeStyle=orthogonalEdgeStyle;" parent="1" source="Z55XJMEU9uU-6QPWOgbq-85" target="BPb5hYeniMufHD9t9Q5h-5" edge="1">
          <mxGeometry relative="1" as="geometry">
            <mxPoint x="-820" y="805" as="sourcePoint" />
            <mxPoint x="-75" y="280" as="targetPoint" />
            <Array as="points">
              <mxPoint x="-925" y="660" />
              <mxPoint x="-190" y="660" />
            </Array>
          </mxGeometry>
        </mxCell>
        <mxCell id="BPb5hYeniMufHD9t9Q5h-23" style="rounded=1;orthogonalLoop=1;jettySize=auto;html=1;fillColor=#d5e8d4;strokeColor=#82b366;edgeStyle=orthogonalEdgeStyle;" parent="1" source="Z55XJMEU9uU-6QPWOgbq-85" target="BPb5hYeniMufHD9t9Q5h-16" edge="1">
          <mxGeometry relative="1" as="geometry">
            <mxPoint x="-820" y="805" as="sourcePoint" />
            <mxPoint x="-70" y="230" as="targetPoint" />
            <Array as="points">
              <mxPoint x="-925" y="660" />
              <mxPoint x="-300" y="660" />
            </Array>
          </mxGeometry>
        </mxCell>
        <mxCell id="BPb5hYeniMufHD9t9Q5h-28" style="rounded=1;orthogonalLoop=1;jettySize=auto;html=1;dashed=1;fillColor=#ffe6cc;strokeColor=#d79b00;" parent="1" source="BPb5hYeniMufHD9t9Q5h-16" target="BPb5hYeniMufHD9t9Q5h-25" edge="1">
          <mxGeometry relative="1" as="geometry">
            <mxPoint x="-210" y="660" as="targetPoint" />
          </mxGeometry>
        </mxCell>
        <mxCell id="BPb5hYeniMufHD9t9Q5h-25" value="LimbProcessor" style="text;html=1;align=center;verticalAlign=middle;whiteSpace=wrap;rounded=1;fillColor=#e1d5e7;strokeColor=#9673a6;" parent="1" vertex="1">
          <mxGeometry x="-330" y="585" width="100" height="30" as="geometry" />
        </mxCell>
        <mxCell id="BPb5hYeniMufHD9t9Q5h-26" value="LimbTeacher" style="text;html=1;align=center;verticalAlign=middle;whiteSpace=wrap;rounded=1;fillColor=#e1d5e7;strokeColor=#9673a6;" parent="1" vertex="1">
          <mxGeometry x="-437.5" y="585" width="85" height="30" as="geometry" />
        </mxCell>
        <mxCell id="BPb5hYeniMufHD9t9Q5h-27" value="LimbUi" style="text;html=1;align=center;verticalAlign=middle;whiteSpace=wrap;rounded=1;fillColor=#e1d5e7;strokeColor=#9673a6;" parent="1" vertex="1">
          <mxGeometry x="-560" y="585" width="100" height="30" as="geometry" />
        </mxCell>
        <mxCell id="BPb5hYeniMufHD9t9Q5h-29" style="rounded=1;orthogonalLoop=1;jettySize=auto;html=1;dashed=1;fillColor=#ffe6cc;strokeColor=#d79b00;" parent="1" source="BPb5hYeniMufHD9t9Q5h-7" target="BPb5hYeniMufHD9t9Q5h-26" edge="1">
          <mxGeometry relative="1" as="geometry">
            <mxPoint x="-190" y="372" as="sourcePoint" />
            <mxPoint x="-190" y="610" as="targetPoint" />
          </mxGeometry>
        </mxCell>
        <mxCell id="BPb5hYeniMufHD9t9Q5h-31" style="rounded=1;orthogonalLoop=1;jettySize=auto;html=1;dashed=1;fillColor=#ffe6cc;strokeColor=#d79b00;" parent="1" source="BPb5hYeniMufHD9t9Q5h-11" target="BPb5hYeniMufHD9t9Q5h-27" edge="1">
          <mxGeometry relative="1" as="geometry">
            <mxPoint x="-195" y="300" as="sourcePoint" />
            <mxPoint x="-230" y="620" as="targetPoint" />
          </mxGeometry>
        </mxCell>
        <mxCell id="BPb5hYeniMufHD9t9Q5h-32" value="Limb" style="text;html=1;align=center;verticalAlign=middle;whiteSpace=wrap;rounded=1;fillColor=#f8cecc;strokeColor=#b85450;" parent="1" vertex="1">
          <mxGeometry x="-420" y="430" width="50" height="30" as="geometry" />
        </mxCell>
        <mxCell id="BPb5hYeniMufHD9t9Q5h-33" style="rounded=1;orthogonalLoop=1;jettySize=auto;html=1;fillColor=#f8cecc;strokeColor=#b85450;" parent="1" source="BPb5hYeniMufHD9t9Q5h-32" target="BPb5hYeniMufHD9t9Q5h-25" edge="1">
          <mxGeometry relative="1" as="geometry">
            <mxPoint x="-227" y="250" as="sourcePoint" />
            <mxPoint x="-102" y="400" as="targetPoint" />
            <Array as="points" />
          </mxGeometry>
        </mxCell>
        <mxCell id="BPb5hYeniMufHD9t9Q5h-35" style="rounded=1;orthogonalLoop=1;jettySize=auto;html=1;fillColor=#f8cecc;strokeColor=#b85450;" parent="1" source="BPb5hYeniMufHD9t9Q5h-32" target="BPb5hYeniMufHD9t9Q5h-26" edge="1">
          <mxGeometry relative="1" as="geometry">
            <mxPoint x="-353" y="365" as="sourcePoint" />
            <mxPoint x="-290" y="365" as="targetPoint" />
            <Array as="points" />
          </mxGeometry>
        </mxCell>
        <mxCell id="BPb5hYeniMufHD9t9Q5h-36" value="Net" style="text;html=1;align=center;verticalAlign=middle;whiteSpace=wrap;rounded=1;fillColor=#e1d5e7;strokeColor=#9673a6;" parent="1" vertex="1">
          <mxGeometry x="-260" y="510" width="45" height="30" as="geometry" />
        </mxCell>
        <mxCell id="BPb5hYeniMufHD9t9Q5h-37" style="rounded=1;orthogonalLoop=1;jettySize=auto;html=1;fillColor=#f8cecc;strokeColor=#b85450;" parent="1" source="BPb5hYeniMufHD9t9Q5h-69" target="BPb5hYeniMufHD9t9Q5h-36" edge="1">
          <mxGeometry relative="1" as="geometry">
            <mxPoint x="-371" y="400" as="sourcePoint" />
            <mxPoint x="-306" y="420" as="targetPoint" />
            <Array as="points" />
          </mxGeometry>
        </mxCell>
        <mxCell id="BPb5hYeniMufHD9t9Q5h-39" style="rounded=1;orthogonalLoop=1;jettySize=auto;html=1;dashed=1;fillColor=#e1d5e7;strokeColor=#9673a6;" parent="1" source="BPb5hYeniMufHD9t9Q5h-25" target="BPb5hYeniMufHD9t9Q5h-36" edge="1">
          <mxGeometry relative="1" as="geometry">
            <mxPoint x="-190" y="415" as="sourcePoint" />
            <mxPoint x="-230" y="190" as="targetPoint" />
          </mxGeometry>
        </mxCell>
        <mxCell id="BPb5hYeniMufHD9t9Q5h-40" style="rounded=1;orthogonalLoop=1;jettySize=auto;html=1;dashed=1;fillColor=#e1d5e7;strokeColor=#9673a6;" parent="1" source="BPb5hYeniMufHD9t9Q5h-27" target="BPb5hYeniMufHD9t9Q5h-36" edge="1">
          <mxGeometry relative="1" as="geometry">
            <mxPoint x="-362" y="460" as="sourcePoint" />
            <mxPoint x="-220" y="180" as="targetPoint" />
          </mxGeometry>
        </mxCell>
        <mxCell id="BPb5hYeniMufHD9t9Q5h-41" style="rounded=1;orthogonalLoop=1;jettySize=auto;html=1;dashed=1;fillColor=#e1d5e7;strokeColor=#9673a6;" parent="1" source="BPb5hYeniMufHD9t9Q5h-26" target="BPb5hYeniMufHD9t9Q5h-36" edge="1">
          <mxGeometry relative="1" as="geometry">
            <mxPoint x="-381" y="460" as="sourcePoint" />
            <mxPoint x="-225" y="210" as="targetPoint" />
          </mxGeometry>
        </mxCell>
        <mxCell id="BPb5hYeniMufHD9t9Q5h-42" value="Layer" style="text;html=1;align=center;verticalAlign=middle;whiteSpace=wrap;rounded=1;fillColor=#f8cecc;strokeColor=#b85450;" parent="1" vertex="1">
          <mxGeometry x="-590" y="380" width="50" height="30" as="geometry" />
        </mxCell>
        <mxCell id="BPb5hYeniMufHD9t9Q5h-44" value="LayerTeacher" style="text;html=1;align=center;verticalAlign=middle;whiteSpace=wrap;rounded=1;fillColor=#e1d5e7;strokeColor=#9673a6;" parent="1" vertex="1">
          <mxGeometry x="-590" y="510" width="100" height="30" as="geometry" />
        </mxCell>
        <mxCell id="BPb5hYeniMufHD9t9Q5h-45" style="rounded=1;orthogonalLoop=1;jettySize=auto;html=1;fillColor=#f8cecc;strokeColor=#b85450;" parent="1" source="BPb5hYeniMufHD9t9Q5h-53" target="BPb5hYeniMufHD9t9Q5h-44" edge="1">
          <mxGeometry relative="1" as="geometry">
            <mxPoint x="-379" y="330" as="sourcePoint" />
            <mxPoint x="-264" y="400" as="targetPoint" />
          </mxGeometry>
        </mxCell>
        <mxCell id="BPb5hYeniMufHD9t9Q5h-46" style="rounded=1;orthogonalLoop=1;jettySize=auto;html=1;dashed=1;fillColor=#e1d5e7;strokeColor=#9673a6;" parent="1" source="BPb5hYeniMufHD9t9Q5h-26" target="BPb5hYeniMufHD9t9Q5h-44" edge="1">
          <mxGeometry relative="1" as="geometry">
            <mxPoint x="-363" y="345" as="sourcePoint" />
            <mxPoint x="-380" y="450" as="targetPoint" />
          </mxGeometry>
        </mxCell>
        <mxCell id="BPb5hYeniMufHD9t9Q5h-47" value="LayerUi" style="text;html=1;align=center;verticalAlign=middle;whiteSpace=wrap;rounded=1;fillColor=#e1d5e7;strokeColor=#9673a6;" parent="1" vertex="1">
          <mxGeometry x="-705" y="510" width="100" height="30" as="geometry" />
        </mxCell>
        <mxCell id="BPb5hYeniMufHD9t9Q5h-48" style="rounded=1;orthogonalLoop=1;jettySize=auto;html=1;dashed=1;fillColor=#e1d5e7;strokeColor=#9673a6;" parent="1" source="BPb5hYeniMufHD9t9Q5h-27" target="BPb5hYeniMufHD9t9Q5h-47" edge="1">
          <mxGeometry relative="1" as="geometry">
            <mxPoint x="-360" y="190" as="sourcePoint" />
            <mxPoint x="-300" y="610" as="targetPoint" />
          </mxGeometry>
        </mxCell>
        <mxCell id="BPb5hYeniMufHD9t9Q5h-49" style="rounded=1;orthogonalLoop=1;jettySize=auto;html=1;fillColor=#f8cecc;strokeColor=#b85450;" parent="1" source="BPb5hYeniMufHD9t9Q5h-42" target="BPb5hYeniMufHD9t9Q5h-53" edge="1">
          <mxGeometry relative="1" as="geometry">
            <mxPoint x="-95" y="325" as="sourcePoint" />
            <mxPoint x="-55" y="325" as="targetPoint" />
          </mxGeometry>
        </mxCell>
        <mxCell id="BPb5hYeniMufHD9t9Q5h-52" style="rounded=1;orthogonalLoop=1;jettySize=auto;html=1;dashed=1;fillColor=#f8cecc;strokeColor=#b85450;" parent="1" source="BPb5hYeniMufHD9t9Q5h-51" target="BPb5hYeniMufHD9t9Q5h-36" edge="1">
          <mxGeometry relative="1" as="geometry">
            <mxPoint x="-346" y="280" as="sourcePoint" />
            <mxPoint x="-420" y="220" as="targetPoint" />
          </mxGeometry>
        </mxCell>
        <mxCell id="BPb5hYeniMufHD9t9Q5h-53" value="LayerDim" style="text;html=1;align=center;verticalAlign=middle;whiteSpace=wrap;rounded=1;fillColor=#f8cecc;strokeColor=#b85450;" parent="1" vertex="1">
          <mxGeometry x="-690" y="380" width="70" height="30" as="geometry" />
        </mxCell>
        <mxCell id="BPb5hYeniMufHD9t9Q5h-54" style="rounded=1;orthogonalLoop=1;jettySize=auto;html=1;fillColor=#f8cecc;strokeColor=#b85450;" parent="1" source="BPb5hYeniMufHD9t9Q5h-53" target="BPb5hYeniMufHD9t9Q5h-47" edge="1">
          <mxGeometry relative="1" as="geometry">
            <mxPoint x="-460" y="378" as="sourcePoint" />
            <mxPoint x="-290" y="422" as="targetPoint" />
          </mxGeometry>
        </mxCell>
        <mxCell id="BPb5hYeniMufHD9t9Q5h-55" value="NeuronUi" style="text;html=1;align=center;verticalAlign=middle;whiteSpace=wrap;rounded=1;fillColor=#e1d5e7;strokeColor=#9673a6;" parent="1" vertex="1">
          <mxGeometry x="-858.75" y="510" width="70" height="30" as="geometry" />
        </mxCell>
        <mxCell id="BPb5hYeniMufHD9t9Q5h-57" value="NeuronList" style="text;html=1;align=center;verticalAlign=middle;whiteSpace=wrap;rounded=1;fillColor=#e1d5e7;strokeColor=#9673a6;" parent="1" vertex="1">
          <mxGeometry x="-863.75" y="585" width="80" height="30" as="geometry" />
        </mxCell>
        <mxCell id="BPb5hYeniMufHD9t9Q5h-58" style="rounded=1;orthogonalLoop=1;jettySize=auto;html=1;fillColor=#d5e8d4;strokeColor=#82b366;" parent="1" source="Z55XJMEU9uU-6QPWOgbq-43" target="BPb5hYeniMufHD9t9Q5h-55" edge="1">
          <mxGeometry relative="1" as="geometry">
            <mxPoint x="-10" y="435" as="sourcePoint" />
            <mxPoint x="-60" y="435" as="targetPoint" />
            <Array as="points" />
          </mxGeometry>
        </mxCell>
        <mxCell id="BPb5hYeniMufHD9t9Q5h-59" style="rounded=1;orthogonalLoop=1;jettySize=auto;html=1;dashed=1;fillColor=#e1d5e7;strokeColor=#9673a6;" parent="1" source="BPb5hYeniMufHD9t9Q5h-57" target="BPb5hYeniMufHD9t9Q5h-55" edge="1">
          <mxGeometry relative="1" as="geometry">
            <mxPoint x="-273" y="500" as="sourcePoint" />
            <mxPoint x="-490" y="830" as="targetPoint" />
          </mxGeometry>
        </mxCell>
        <mxCell id="BPb5hYeniMufHD9t9Q5h-61" style="rounded=1;orthogonalLoop=1;jettySize=auto;html=1;edgeStyle=orthogonalEdgeStyle;fillColor=#d5e8d4;strokeColor=#82b366;" parent="1" source="Z55XJMEU9uU-6QPWOgbq-44" target="BPb5hYeniMufHD9t9Q5h-42" edge="1">
          <mxGeometry relative="1" as="geometry">
            <mxPoint x="-520" y="545" as="sourcePoint" />
            <mxPoint x="-470" y="545" as="targetPoint" />
            <Array as="points">
              <mxPoint x="-565" y="340" />
            </Array>
          </mxGeometry>
        </mxCell>
        <mxCell id="BPb5hYeniMufHD9t9Q5h-62" value="LayerList" style="text;html=1;align=center;verticalAlign=middle;whiteSpace=wrap;rounded=1;fillColor=#f8cecc;strokeColor=#b85450;" parent="1" vertex="1">
          <mxGeometry x="-520" y="380" width="70" height="30" as="geometry" />
        </mxCell>
        <mxCell id="BPb5hYeniMufHD9t9Q5h-63" style="rounded=1;orthogonalLoop=1;jettySize=auto;html=1;edgeStyle=orthogonalEdgeStyle;fillColor=#d5e8d4;strokeColor=#82b366;" parent="1" source="Z55XJMEU9uU-6QPWOgbq-43" target="BPb5hYeniMufHD9t9Q5h-69" edge="1">
          <mxGeometry relative="1" as="geometry">
            <mxPoint x="120" y="696" as="sourcePoint" />
            <mxPoint x="-230" y="704" as="targetPoint" />
            <Array as="points">
              <mxPoint x="-315" y="465" />
            </Array>
          </mxGeometry>
        </mxCell>
        <mxCell id="BPb5hYeniMufHD9t9Q5h-64" style="rounded=1;orthogonalLoop=1;jettySize=auto;html=1;dashed=1;fillColor=#f8cecc;strokeColor=#b85450;" parent="1" source="BPb5hYeniMufHD9t9Q5h-62" target="BPb5hYeniMufHD9t9Q5h-42" edge="1">
          <mxGeometry relative="1" as="geometry">
            <mxPoint x="-36" y="352.5" as="sourcePoint" />
            <mxPoint x="-335" y="520" as="targetPoint" />
          </mxGeometry>
        </mxCell>
        <mxCell id="BPb5hYeniMufHD9t9Q5h-67" value="Nerve" style="text;html=1;align=center;verticalAlign=middle;whiteSpace=wrap;rounded=1;fillColor=#f8cecc;strokeColor=#b85450;" parent="1" vertex="1">
          <mxGeometry x="-240" y="380" width="50" height="30" as="geometry" />
        </mxCell>
        <mxCell id="BPb5hYeniMufHD9t9Q5h-68" style="rounded=1;orthogonalLoop=1;jettySize=auto;html=1;edgeStyle=orthogonalEdgeStyle;fillColor=#d5e8d4;strokeColor=#82b366;" parent="1" source="Z55XJMEU9uU-6QPWOgbq-44" target="BPb5hYeniMufHD9t9Q5h-67" edge="1">
          <mxGeometry relative="1" as="geometry">
            <mxPoint x="-686" y="560" as="sourcePoint" />
            <mxPoint x="-581" y="710" as="targetPoint" />
            <Array as="points">
              <mxPoint x="-220" y="340" />
            </Array>
          </mxGeometry>
        </mxCell>
        <mxCell id="BPb5hYeniMufHD9t9Q5h-70" style="rounded=1;orthogonalLoop=1;jettySize=auto;html=1;dashed=1;fillColor=#f8cecc;strokeColor=#b85450;" parent="1" source="BPb5hYeniMufHD9t9Q5h-69" target="BPb5hYeniMufHD9t9Q5h-67" edge="1">
          <mxGeometry relative="1" as="geometry">
            <mxPoint x="-345" y="457.5" as="sourcePoint" />
            <mxPoint x="-325" y="320" as="targetPoint" />
          </mxGeometry>
        </mxCell>
        <mxCell id="BPb5hYeniMufHD9t9Q5h-71" style="rounded=1;orthogonalLoop=1;jettySize=auto;html=1;edgeStyle=orthogonalEdgeStyle;fillColor=#d5e8d4;strokeColor=#82b366;" parent="1" source="Z55XJMEU9uU-6QPWOgbq-44" target="BPb5hYeniMufHD9t9Q5h-32" edge="1">
          <mxGeometry relative="1" as="geometry">
            <mxPoint x="-817" y="512" as="sourcePoint" />
            <mxPoint x="-695" y="460" as="targetPoint" />
            <Array as="points">
              <mxPoint x="-395" y="340" />
            </Array>
          </mxGeometry>
        </mxCell>
        <mxCell id="BPb5hYeniMufHD9t9Q5h-72" style="rounded=1;orthogonalLoop=1;jettySize=auto;html=1;edgeStyle=orthogonalEdgeStyle;fillColor=#d5e8d4;strokeColor=#82b366;" parent="1" source="Z55XJMEU9uU-6QPWOgbq-43" target="BPb5hYeniMufHD9t9Q5h-62" edge="1">
          <mxGeometry relative="1" as="geometry">
            <mxPoint x="-747" y="710" as="sourcePoint" />
            <mxPoint x="-580" y="460" as="targetPoint" />
            <Array as="points">
              <mxPoint x="-485" y="465" />
            </Array>
          </mxGeometry>
        </mxCell>
        <mxCell id="BPb5hYeniMufHD9t9Q5h-73" style="rounded=1;orthogonalLoop=1;jettySize=auto;html=1;dashed=1;fillColor=#f8cecc;strokeColor=#b85450;" parent="1" source="BPb5hYeniMufHD9t9Q5h-32" target="BPb5hYeniMufHD9t9Q5h-69" edge="1">
          <mxGeometry relative="1" as="geometry">
            <mxPoint x="-505" y="370" as="sourcePoint" />
            <mxPoint x="-305" y="370" as="targetPoint" />
          </mxGeometry>
        </mxCell>
        <mxCell id="BPb5hYeniMufHD9t9Q5h-74" style="rounded=1;orthogonalLoop=1;jettySize=auto;html=1;dashed=1;fillColor=#f8cecc;strokeColor=#b85450;" parent="1" source="BPb5hYeniMufHD9t9Q5h-32" target="BPb5hYeniMufHD9t9Q5h-62" edge="1">
          <mxGeometry relative="1" as="geometry">
            <mxPoint x="-455" y="425" as="sourcePoint" />
            <mxPoint x="-335" y="470" as="targetPoint" />
          </mxGeometry>
        </mxCell>
        <mxCell id="BPb5hYeniMufHD9t9Q5h-75" value="ShoggothRpcServer" style="text;html=1;align=center;verticalAlign=middle;whiteSpace=wrap;rounded=1;fillColor=#e1d5e7;strokeColor=#9673a6;" parent="1" vertex="1">
          <mxGeometry x="-60" y="510" width="120" height="30" as="geometry" />
        </mxCell>
        <mxCell id="BPb5hYeniMufHD9t9Q5h-76" style="rounded=1;orthogonalLoop=1;jettySize=auto;html=1;dashed=1;fillColor=#ffe6cc;strokeColor=#d79b00;edgeStyle=orthogonalEdgeStyle;" parent="1" source="BPb5hYeniMufHD9t9Q5h-5" target="BPb5hYeniMufHD9t9Q5h-75" edge="1">
          <mxGeometry relative="1" as="geometry">
            <mxPoint x="-41" y="425.5" as="sourcePoint" />
            <mxPoint x="20" y="335.5" as="targetPoint" />
            <Array as="points">
              <mxPoint y="705" />
            </Array>
          </mxGeometry>
        </mxCell>
        <mxCell id="BPb5hYeniMufHD9t9Q5h-78" style="rounded=1;orthogonalLoop=1;jettySize=auto;html=1;fillColor=#dae8fc;strokeColor=#6c8ebf;" parent="1" source="Z55XJMEU9uU-6QPWOgbq-25" target="BPb5hYeniMufHD9t9Q5h-75" edge="1">
          <mxGeometry relative="1" as="geometry">
            <mxPoint x="-70" y="190" as="sourcePoint" />
            <Array as="points" />
          </mxGeometry>
        </mxCell>
        <mxCell id="BPb5hYeniMufHD9t9Q5h-89" style="rounded=1;orthogonalLoop=1;jettySize=auto;html=1;edgeStyle=orthogonalEdgeStyle;fillColor=#d5e8d4;strokeColor=#82b366;" parent="1" source="Z55XJMEU9uU-6QPWOgbq-44" target="BPb5hYeniMufHD9t9Q5h-51" edge="1">
          <mxGeometry relative="1" as="geometry">
            <mxPoint x="-870" y="434" as="sourcePoint" />
            <mxPoint x="-560" y="426" as="targetPoint" />
            <Array as="points">
              <mxPoint x="-120" y="340" />
            </Array>
          </mxGeometry>
        </mxCell>
        <mxCell id="BPb5hYeniMufHD9t9Q5h-92" value="Object" style="text;html=1;align=center;verticalAlign=middle;whiteSpace=wrap;rounded=1;fillColor=#b1ddf0;strokeColor=#10739e;" parent="1" vertex="1">
          <mxGeometry x="-650" y="1080" width="60" height="30" as="geometry" />
        </mxCell>
        <mxCell id="BPb5hYeniMufHD9t9Q5h-93" style="rounded=1;orthogonalLoop=1;jettySize=auto;html=1;dashed=1;fillColor=#e1d5e7;strokeColor=#9673a6;edgeStyle=orthogonalEdgeStyle;" parent="1" source="BPb5hYeniMufHD9t9Q5h-47" target="BPb5hYeniMufHD9t9Q5h-92" edge="1">
          <mxGeometry relative="1" as="geometry">
            <mxPoint x="-310" y="620" as="sourcePoint" />
            <mxPoint x="-525" y="440" as="targetPoint" />
            <Array as="points">
              <mxPoint x="-720" y="525" />
              <mxPoint x="-720" y="1095" />
            </Array>
          </mxGeometry>
        </mxCell>
        <mxCell id="Z55XJMEU9uU-6QPWOgbq-3" style="rounded=1;orthogonalLoop=1;jettySize=auto;html=1;dashed=1;fillColor=#e1d5e7;strokeColor=#9673a6;" parent="1" source="BPb5hYeniMufHD9t9Q5h-75" target="BPb5hYeniMufHD9t9Q5h-36" edge="1">
          <mxGeometry relative="1" as="geometry">
            <mxPoint x="-252.5" y="205" as="sourcePoint" />
            <mxPoint x="-402.5" y="275" as="targetPoint" />
          </mxGeometry>
        </mxCell>
        <mxCell id="Z55XJMEU9uU-6QPWOgbq-4" style="rounded=1;orthogonalLoop=1;jettySize=auto;html=1;dashed=1;" parent="1" edge="1">
          <mxGeometry relative="1" as="geometry">
            <mxPoint x="-110" y="1240" as="sourcePoint" />
            <mxPoint x="-40" y="1240" as="targetPoint" />
          </mxGeometry>
        </mxCell>
        <mxCell id="Z55XJMEU9uU-6QPWOgbq-5" value="Use" style="text;html=1;align=center;verticalAlign=middle;whiteSpace=wrap;rounded=1;" parent="1" vertex="1">
          <mxGeometry x="-175" y="1230" width="60" height="30" as="geometry" />
        </mxCell>
        <mxCell id="Z55XJMEU9uU-6QPWOgbq-6" style="rounded=1;orthogonalLoop=1;jettySize=auto;html=1;" parent="1" edge="1">
          <mxGeometry relative="1" as="geometry">
            <mxPoint x="-110" y="1280" as="sourcePoint" />
            <mxPoint x="-40" y="1280" as="targetPoint" />
          </mxGeometry>
        </mxCell>
        <mxCell id="Z55XJMEU9uU-6QPWOgbq-7" value="Extends" style="text;html=1;align=center;verticalAlign=middle;whiteSpace=wrap;rounded=1;" parent="1" vertex="1">
          <mxGeometry x="-170" y="1265.5" width="60" height="30" as="geometry" />
        </mxCell>
        <mxCell id="Z55XJMEU9uU-6QPWOgbq-12" style="rounded=1;orthogonalLoop=1;jettySize=auto;html=1;dashed=1;fillColor=#e1d5e7;strokeColor=#9673a6;" parent="1" source="BPb5hYeniMufHD9t9Q5h-5" target="BPb5hYeniMufHD9t9Q5h-36" edge="1">
          <mxGeometry relative="1" as="geometry">
            <mxPoint x="-216" y="700" as="sourcePoint" />
            <mxPoint x="-190" y="170" as="targetPoint" />
          </mxGeometry>
        </mxCell>
        <mxCell id="Z55XJMEU9uU-6QPWOgbq-15" style="rounded=1;orthogonalLoop=1;jettySize=auto;html=1;dashed=1;fillColor=#ffe6cc;strokeColor=#d79b00;" parent="1" source="BPb5hYeniMufHD9t9Q5h-11" target="BPb5hYeniMufHD9t9Q5h-57" edge="1">
          <mxGeometry relative="1" as="geometry">
            <mxPoint x="-150" y="745.5" as="sourcePoint" />
            <mxPoint x="-120" y="590.5" as="targetPoint" />
          </mxGeometry>
        </mxCell>
        <mxCell id="Z55XJMEU9uU-6QPWOgbq-17" value="Camera" style="text;html=1;align=center;verticalAlign=middle;whiteSpace=wrap;rounded=1;fillColor=#b1ddf0;strokeColor=#10739e;" parent="1" vertex="1">
          <mxGeometry x="-650" y="960" width="60" height="30" as="geometry" />
        </mxCell>
        <mxCell id="Z55XJMEU9uU-6QPWOgbq-19" style="rounded=1;orthogonalLoop=1;jettySize=auto;html=1;dashed=1;fillColor=#fff2cc;strokeColor=#d6b656;edgeStyle=orthogonalEdgeStyle;" parent="1" source="Z55XJMEU9uU-6QPWOgbq-17" target="BPb5hYeniMufHD9t9Q5h-11" edge="1">
          <mxGeometry relative="1" as="geometry">
            <mxPoint x="-260" y="770" as="sourcePoint" />
            <mxPoint x="-70" y="710" as="targetPoint" />
            <Array as="points">
              <mxPoint x="-620" y="705" />
            </Array>
          </mxGeometry>
        </mxCell>
        <mxCell id="Z55XJMEU9uU-6QPWOgbq-20" value="ScenePayload" style="text;html=1;align=center;verticalAlign=middle;whiteSpace=wrap;rounded=1;fillColor=#b1ddf0;strokeColor=#10739e;" parent="1" vertex="1">
          <mxGeometry x="-555" y="820" width="90" height="30" as="geometry" />
        </mxCell>
        <mxCell id="Z55XJMEU9uU-6QPWOgbq-21" style="rounded=1;orthogonalLoop=1;jettySize=auto;html=1;dashed=1;fillColor=#f8cecc;strokeColor=#b85450;" parent="1" source="BPb5hYeniMufHD9t9Q5h-51" target="Z55XJMEU9uU-6QPWOgbq-24" edge="1">
          <mxGeometry relative="1" as="geometry">
            <mxPoint x="-540" y="190" as="sourcePoint" />
            <mxPoint x="-310" y="80" as="targetPoint" />
          </mxGeometry>
        </mxCell>
        <mxCell id="Z55XJMEU9uU-6QPWOgbq-24" value="RpcClient" style="text;html=1;align=center;verticalAlign=middle;whiteSpace=wrap;rounded=1;fillColor=#dae8fc;strokeColor=#6c8ebf;" parent="1" vertex="1">
          <mxGeometry x="-165" y="240" width="100" height="30" as="geometry" />
        </mxCell>
        <mxCell id="Z55XJMEU9uU-6QPWOgbq-25" value="RpcServer" style="text;html=1;align=center;verticalAlign=middle;whiteSpace=wrap;rounded=1;fillColor=#dae8fc;strokeColor=#6c8ebf;" parent="1" vertex="1">
          <mxGeometry x="-50" y="240" width="100" height="30" as="geometry" />
        </mxCell>
        <mxCell id="Z55XJMEU9uU-6QPWOgbq-26" value="Sock" style="text;html=1;align=center;verticalAlign=middle;whiteSpace=wrap;rounded=1;fillColor=#dae8fc;strokeColor=#6c8ebf;" parent="1" vertex="1">
          <mxGeometry x="-120" y="120" width="100" height="30" as="geometry" />
        </mxCell>
        <mxCell id="Z55XJMEU9uU-6QPWOgbq-27" value="SockRpc" style="text;html=1;align=center;verticalAlign=middle;whiteSpace=wrap;rounded=1;fillColor=#dae8fc;strokeColor=#6c8ebf;" parent="1" vertex="1">
          <mxGeometry x="-120" y="180" width="100" height="30" as="geometry" />
        </mxCell>
        <mxCell id="Z55XJMEU9uU-6QPWOgbq-28" style="rounded=1;orthogonalLoop=1;jettySize=auto;html=1;fillColor=#dae8fc;strokeColor=#6c8ebf;" parent="1" source="Z55XJMEU9uU-6QPWOgbq-26" target="Z55XJMEU9uU-6QPWOgbq-27" edge="1">
          <mxGeometry relative="1" as="geometry">
            <mxPoint x="95" y="260" as="sourcePoint" />
            <mxPoint x="205" y="620" as="targetPoint" />
          </mxGeometry>
        </mxCell>
        <mxCell id="Z55XJMEU9uU-6QPWOgbq-29" value="SockManager" style="text;html=1;align=center;verticalAlign=middle;whiteSpace=wrap;rounded=1;fillColor=#dae8fc;strokeColor=#6c8ebf;" parent="1" vertex="1">
          <mxGeometry x="-290" y="240" width="100" height="30" as="geometry" />
        </mxCell>
        <mxCell id="Z55XJMEU9uU-6QPWOgbq-31" value="SockBufer" style="text;html=1;align=center;verticalAlign=middle;whiteSpace=wrap;rounded=1;fillColor=#dae8fc;strokeColor=#6c8ebf;" parent="1" vertex="1">
          <mxGeometry x="-120" y="60" width="100" height="30" as="geometry" />
        </mxCell>
        <mxCell id="Z55XJMEU9uU-6QPWOgbq-33" value="SockBuferItem" style="text;html=1;align=center;verticalAlign=middle;whiteSpace=wrap;rounded=1;fillColor=#dae8fc;strokeColor=#6c8ebf;" parent="1" vertex="1">
          <mxGeometry x="-120" width="100" height="30" as="geometry" />
        </mxCell>
        <mxCell id="Z55XJMEU9uU-6QPWOgbq-35" style="rounded=1;orthogonalLoop=1;jettySize=auto;html=1;dashed=1;fillColor=#dae8fc;strokeColor=#6c8ebf;" parent="1" source="Z55XJMEU9uU-6QPWOgbq-31" target="Z55XJMEU9uU-6QPWOgbq-33" edge="1">
          <mxGeometry relative="1" as="geometry">
            <mxPoint x="985" y="-10" as="sourcePoint" />
            <mxPoint x="125" y="90" as="targetPoint" />
          </mxGeometry>
        </mxCell>
        <mxCell id="Z55XJMEU9uU-6QPWOgbq-36" style="rounded=1;orthogonalLoop=1;jettySize=auto;html=1;fillColor=#dae8fc;strokeColor=#6c8ebf;" parent="1" source="Z55XJMEU9uU-6QPWOgbq-27" target="Z55XJMEU9uU-6QPWOgbq-25" edge="1">
          <mxGeometry relative="1" as="geometry">
            <mxPoint x="70" y="160" as="sourcePoint" />
            <mxPoint x="60" y="73" as="targetPoint" />
          </mxGeometry>
        </mxCell>
        <mxCell id="Z55XJMEU9uU-6QPWOgbq-37" style="rounded=1;orthogonalLoop=1;jettySize=auto;html=1;fillColor=#dae8fc;strokeColor=#6c8ebf;" parent="1" source="Z55XJMEU9uU-6QPWOgbq-27" target="Z55XJMEU9uU-6QPWOgbq-24" edge="1">
          <mxGeometry relative="1" as="geometry">
            <mxPoint x="82" y="90" as="sourcePoint" />
            <mxPoint x="-12" y="140" as="targetPoint" />
          </mxGeometry>
        </mxCell>
        <mxCell id="Z55XJMEU9uU-6QPWOgbq-38" style="rounded=1;orthogonalLoop=1;jettySize=auto;html=1;dashed=1;fillColor=#dae8fc;strokeColor=#6c8ebf;" parent="1" source="Z55XJMEU9uU-6QPWOgbq-24" target="Z55XJMEU9uU-6QPWOgbq-29" edge="1">
          <mxGeometry relative="1" as="geometry">
            <mxPoint x="338" y="170" as="sourcePoint" />
            <mxPoint x="-300" y="340" as="targetPoint" />
          </mxGeometry>
        </mxCell>
        <mxCell id="Z55XJMEU9uU-6QPWOgbq-39" style="rounded=1;orthogonalLoop=1;jettySize=auto;html=1;dashed=1;fillColor=#dae8fc;strokeColor=#6c8ebf;" parent="1" source="Z55XJMEU9uU-6QPWOgbq-26" target="Z55XJMEU9uU-6QPWOgbq-31" edge="1">
          <mxGeometry relative="1" as="geometry">
            <mxPoint x="245" y="170" as="sourcePoint" />
            <mxPoint x="395" y="170" as="targetPoint" />
          </mxGeometry>
        </mxCell>
        <mxCell id="Z55XJMEU9uU-6QPWOgbq-40" style="rounded=1;orthogonalLoop=1;jettySize=auto;html=1;fillColor=#d5e8d4;strokeColor=#82b366;edgeStyle=orthogonalEdgeStyle;" parent="1" source="Z55XJMEU9uU-6QPWOgbq-44" target="Z55XJMEU9uU-6QPWOgbq-26" edge="1">
          <mxGeometry relative="1" as="geometry">
            <mxPoint x="-814" y="430" as="sourcePoint" />
            <mxPoint x="-580" y="285" as="targetPoint" />
            <Array as="points">
              <mxPoint x="-400" y="340" />
              <mxPoint x="-400" y="135" />
            </Array>
          </mxGeometry>
        </mxCell>
        <mxCell id="Z55XJMEU9uU-6QPWOgbq-43" value="Heap" style="text;html=1;align=center;verticalAlign=middle;whiteSpace=wrap;rounded=1;fillColor=#d5e8d4;strokeColor=#82b366;" parent="1" vertex="1">
          <mxGeometry x="-858.75" y="450" width="70" height="30" as="geometry" />
        </mxCell>
        <mxCell id="Z55XJMEU9uU-6QPWOgbq-44" value="Result" style="text;html=1;align=center;verticalAlign=middle;whiteSpace=wrap;rounded=1;fillColor=#d5e8d4;strokeColor=#82b366;" parent="1" vertex="1">
          <mxGeometry x="-1017.5" y="322.16" width="62.5" height="30" as="geometry" />
        </mxCell>
        <mxCell id="Z55XJMEU9uU-6QPWOgbq-47" value="Hid" style="text;html=1;align=center;verticalAlign=middle;whiteSpace=wrap;rounded=1;fillColor=#d5e8d4;strokeColor=#82b366;" parent="1" vertex="1">
          <mxGeometry x="-1271.25" y="270" width="80" height="30" as="geometry" />
        </mxCell>
        <mxCell id="Z55XJMEU9uU-6QPWOgbq-48" value="Log" style="text;html=1;align=center;verticalAlign=middle;whiteSpace=wrap;rounded=1;fillColor=#d5e8d4;strokeColor=#82b366;" parent="1" vertex="1">
          <mxGeometry x="-1365" y="322.16" width="50" height="30" as="geometry" />
        </mxCell>
        <mxCell id="Z55XJMEU9uU-6QPWOgbq-49" value="LogManager" style="text;html=1;align=center;verticalAlign=middle;whiteSpace=wrap;rounded=1;fillColor=#d5e8d4;strokeColor=#82b366;" parent="1" vertex="1">
          <mxGeometry x="-1271.25" y="322.16" width="80" height="30" as="geometry" />
        </mxCell>
        <mxCell id="Z55XJMEU9uU-6QPWOgbq-50" style="rounded=1;orthogonalLoop=1;jettySize=auto;html=1;dashed=1;fillColor=#d5e8d4;strokeColor=#82b366;" parent="1" source="Z55XJMEU9uU-6QPWOgbq-49" target="Z55XJMEU9uU-6QPWOgbq-48" edge="1">
          <mxGeometry relative="1" as="geometry">
            <mxPoint x="-1340" y="442.16" as="sourcePoint" />
            <mxPoint x="-2062.75" y="174.66" as="targetPoint" />
          </mxGeometry>
        </mxCell>
        <mxCell id="Z55XJMEU9uU-6QPWOgbq-53" value="Mon" style="text;html=1;align=center;verticalAlign=middle;whiteSpace=wrap;rounded=1;fillColor=#d5e8d4;strokeColor=#82b366;" parent="1" vertex="1">
          <mxGeometry x="-1160" y="270" width="80" height="30" as="geometry" />
        </mxCell>
        <mxCell id="Z55XJMEU9uU-6QPWOgbq-54" style="rounded=1;orthogonalLoop=1;jettySize=auto;html=1;fillColor=#d5e8d4;strokeColor=#82b366;edgeStyle=orthogonalEdgeStyle;" parent="1" source="Z55XJMEU9uU-6QPWOgbq-44" target="Z55XJMEU9uU-6QPWOgbq-53" edge="1">
          <mxGeometry relative="1" as="geometry">
            <mxPoint x="-1206.25" y="479.66" as="sourcePoint" />
            <mxPoint x="-1226.25" y="544.66" as="targetPoint" />
            <Array as="points">
              <mxPoint x="-1050" y="337" />
              <mxPoint x="-1050" y="285" />
            </Array>
          </mxGeometry>
        </mxCell>
        <mxCell id="Z55XJMEU9uU-6QPWOgbq-56" value="Moment" style="text;html=1;align=center;verticalAlign=middle;whiteSpace=wrap;rounded=1;fillColor=#d5e8d4;strokeColor=#82b366;" parent="1" vertex="1">
          <mxGeometry x="-1370" y="270" width="60" height="30" as="geometry" />
        </mxCell>
        <mxCell id="Z55XJMEU9uU-6QPWOgbq-58" style="rounded=1;orthogonalLoop=1;jettySize=auto;html=1;fillColor=#d5e8d4;strokeColor=#82b366;" parent="1" source="Z55XJMEU9uU-6QPWOgbq-44" target="BPb5hYeniMufHD9t9Q5h-9" edge="1">
          <mxGeometry relative="1" as="geometry">
            <mxPoint x="-1184.25" y="479.66" as="sourcePoint" />
            <mxPoint x="-1040" y="290" as="targetPoint" />
          </mxGeometry>
        </mxCell>
        <mxCell id="Z55XJMEU9uU-6QPWOgbq-62" value="Json" style="text;html=1;align=center;verticalAlign=middle;whiteSpace=wrap;rounded=1;fillColor=#b1ddf0;strokeColor=#10739e;" parent="1" vertex="1">
          <mxGeometry x="-1013.75" y="190" width="55" height="30" as="geometry" />
        </mxCell>
        <mxCell id="Z55XJMEU9uU-6QPWOgbq-63" value="Param" style="text;html=1;align=center;verticalAlign=middle;whiteSpace=wrap;rounded=1;fillColor=#b1ddf0;strokeColor=#10739e;" parent="1" vertex="1">
          <mxGeometry x="-858.75" y="130" width="72.5" height="30" as="geometry" />
        </mxCell>
        <mxCell id="Z55XJMEU9uU-6QPWOgbq-64" value="ParamList" style="text;html=1;align=center;verticalAlign=middle;whiteSpace=wrap;rounded=1;fillColor=#b1ddf0;strokeColor=#10739e;" parent="1" vertex="1">
          <mxGeometry x="-860" y="190" width="75" height="30" as="geometry" />
        </mxCell>
        <mxCell id="Z55XJMEU9uU-6QPWOgbq-65" style="rounded=1;orthogonalLoop=1;jettySize=auto;html=1;fillColor=#d5e8d4;strokeColor=#82b366;" parent="1" source="Z55XJMEU9uU-6QPWOgbq-43" target="Z55XJMEU9uU-6QPWOgbq-64" edge="1">
          <mxGeometry relative="1" as="geometry">
            <mxPoint x="-755" y="830" as="sourcePoint" />
            <mxPoint x="-755" y="805" as="targetPoint" />
            <Array as="points" />
          </mxGeometry>
        </mxCell>
        <mxCell id="Z55XJMEU9uU-6QPWOgbq-66" value="ParamListFile" style="text;html=1;align=center;verticalAlign=middle;whiteSpace=wrap;rounded=1;fillColor=#b1ddf0;strokeColor=#10739e;" parent="1" vertex="1">
          <mxGeometry x="-750" y="190" width="100" height="30" as="geometry" />
        </mxCell>
        <mxCell id="Z55XJMEU9uU-6QPWOgbq-67" style="rounded=1;orthogonalLoop=1;jettySize=auto;html=1;fillColor=#b1ddf0;strokeColor=#10739e;" parent="1" source="Z55XJMEU9uU-6QPWOgbq-64" target="Z55XJMEU9uU-6QPWOgbq-66" edge="1">
          <mxGeometry relative="1" as="geometry">
            <mxPoint x="-965" y="255" as="sourcePoint" />
            <mxPoint x="-960" y="75" as="targetPoint" />
          </mxGeometry>
        </mxCell>
        <mxCell id="Z55XJMEU9uU-6QPWOgbq-68" style="rounded=1;orthogonalLoop=1;jettySize=auto;html=1;fillColor=#d5e8d4;strokeColor=#82b366;edgeStyle=orthogonalEdgeStyle;" parent="1" source="Z55XJMEU9uU-6QPWOgbq-44" target="Z55XJMEU9uU-6QPWOgbq-66" edge="1">
          <mxGeometry relative="1" as="geometry">
            <mxPoint x="-985" y="755" as="sourcePoint" />
            <mxPoint x="-980" y="575" as="targetPoint" />
            <Array as="points">
              <mxPoint x="-700" y="340" />
            </Array>
          </mxGeometry>
        </mxCell>
        <mxCell id="Z55XJMEU9uU-6QPWOgbq-70" style="rounded=1;orthogonalLoop=1;jettySize=auto;html=1;fillColor=#d5e8d4;strokeColor=#82b366;" parent="1" source="Z55XJMEU9uU-6QPWOgbq-44" target="Z55XJMEU9uU-6QPWOgbq-62" edge="1">
          <mxGeometry relative="1" as="geometry">
            <mxPoint x="-1050" y="810" as="sourcePoint" />
            <mxPoint x="-1085" y="695" as="targetPoint" />
          </mxGeometry>
        </mxCell>
        <mxCell id="Z55XJMEU9uU-6QPWOgbq-71" style="rounded=1;orthogonalLoop=1;jettySize=auto;html=1;dashed=1;fillColor=#b1ddf0;strokeColor=#10739e;" parent="1" source="Z55XJMEU9uU-6QPWOgbq-64" target="Z55XJMEU9uU-6QPWOgbq-62" edge="1">
          <mxGeometry relative="1" as="geometry">
            <mxPoint x="-500" y="130" as="sourcePoint" />
            <mxPoint x="-840" y="-40" as="targetPoint" />
          </mxGeometry>
        </mxCell>
        <mxCell id="Z55XJMEU9uU-6QPWOgbq-72" style="rounded=1;orthogonalLoop=1;jettySize=auto;html=1;dashed=1;fillColor=#b1ddf0;strokeColor=#10739e;" parent="1" source="Z55XJMEU9uU-6QPWOgbq-64" target="Z55XJMEU9uU-6QPWOgbq-63" edge="1">
          <mxGeometry relative="1" as="geometry">
            <mxPoint x="-758.75" y="170" as="sourcePoint" />
            <mxPoint x="-750" y="90" as="targetPoint" />
          </mxGeometry>
        </mxCell>
        <mxCell id="Z55XJMEU9uU-6QPWOgbq-81" style="rounded=1;orthogonalLoop=1;jettySize=auto;html=1;fillColor=#d5e8d4;strokeColor=#82b366;edgeStyle=orthogonalEdgeStyle;" parent="1" source="BPb5hYeniMufHD9t9Q5h-9" target="BPb5hYeniMufHD9t9Q5h-3" edge="1">
          <mxGeometry relative="1" as="geometry">
            <mxPoint x="-935" y="741.7010309278351" as="sourcePoint" />
            <mxPoint x="-123.75" y="374.5" as="targetPoint" />
            <Array as="points">
              <mxPoint x="-1110" y="905" />
            </Array>
          </mxGeometry>
        </mxCell>
        <mxCell id="Z55XJMEU9uU-6QPWOgbq-85" value="Paylaod" style="text;html=1;align=center;verticalAlign=middle;whiteSpace=wrap;rounded=1;fillColor=#d5e8d4;strokeColor=#82b366;" parent="1" vertex="1">
          <mxGeometry x="-966.25" y="450" width="80" height="30" as="geometry" />
        </mxCell>
        <mxCell id="Z55XJMEU9uU-6QPWOgbq-87" style="rounded=1;orthogonalLoop=1;jettySize=auto;html=1;fillColor=#d5e8d4;strokeColor=#82b366;edgeStyle=orthogonalEdgeStyle;" parent="1" source="Z55XJMEU9uU-6QPWOgbq-44" target="Z55XJMEU9uU-6QPWOgbq-85" edge="1">
          <mxGeometry relative="1" as="geometry">
            <mxPoint x="-922.5" y="322.16" as="sourcePoint" />
            <mxPoint x="-1095.75" y="320" as="targetPoint" />
            <Array as="points">
              <mxPoint x="-990" y="460" />
            </Array>
          </mxGeometry>
        </mxCell>
        <mxCell id="Z55XJMEU9uU-6QPWOgbq-91" style="rounded=1;orthogonalLoop=1;jettySize=auto;html=1;dashed=1;fillColor=#d5e8d4;strokeColor=#82b366;" parent="1" source="BPb5hYeniMufHD9t9Q5h-9" target="Z55XJMEU9uU-6QPWOgbq-49" edge="1">
          <mxGeometry relative="1" as="geometry">
            <mxPoint x="-1262" y="372.16" as="sourcePoint" />
            <mxPoint x="-1368" y="465.16" as="targetPoint" />
          </mxGeometry>
        </mxCell>
        <mxCell id="Z55XJMEU9uU-6QPWOgbq-92" style="rounded=1;orthogonalLoop=1;jettySize=auto;html=1;fillColor=#d5e8d4;strokeColor=#82b366;edgeStyle=orthogonalEdgeStyle;" parent="1" source="Z55XJMEU9uU-6QPWOgbq-85" target="Z55XJMEU9uU-6QPWOgbq-20" edge="1">
          <mxGeometry relative="1" as="geometry">
            <mxPoint x="-841.9164037854889" y="820" as="sourcePoint" />
            <mxPoint x="-880" y="1380.5" as="targetPoint" />
            <Array as="points">
              <mxPoint x="-925" y="840" />
              <mxPoint x="-530" y="840" />
            </Array>
          </mxGeometry>
        </mxCell>
        <mxCell id="Z55XJMEU9uU-6QPWOgbq-125" value="Texture" style="text;html=1;align=center;verticalAlign=middle;whiteSpace=wrap;rounded=1;fillColor=#b1ddf0;strokeColor=#10739e;" parent="1" vertex="1">
          <mxGeometry x="-720" y="1210" width="60" height="30" as="geometry" />
        </mxCell>
        <mxCell id="Z55XJMEU9uU-6QPWOgbq-126" value="Scene" style="text;html=1;align=center;verticalAlign=middle;whiteSpace=wrap;rounded=1;fillColor=#b1ddf0;strokeColor=#10739e;" parent="1" vertex="1">
          <mxGeometry x="-540" y="1139" width="60" height="30" as="geometry" />
        </mxCell>
        <mxCell id="Z55XJMEU9uU-6QPWOgbq-127" style="rounded=1;orthogonalLoop=1;jettySize=auto;html=1;dashed=1;fillColor=#b1ddf0;strokeColor=#10739e;" parent="1" source="Z55XJMEU9uU-6QPWOgbq-20" target="Z55XJMEU9uU-6QPWOgbq-126" edge="1">
          <mxGeometry relative="1" as="geometry">
            <mxPoint x="-514" y="780" as="sourcePoint" />
            <mxPoint x="-435" y="970" as="targetPoint" />
          </mxGeometry>
        </mxCell>
        <mxCell id="Z55XJMEU9uU-6QPWOgbq-130" style="rounded=1;orthogonalLoop=1;jettySize=auto;html=1;fillColor=#d5e8d4;strokeColor=#82b366;edgeStyle=orthogonalEdgeStyle;" parent="1" source="Z55XJMEU9uU-6QPWOgbq-44" target="Z55XJMEU9uU-6QPWOgbq-125" edge="1">
          <mxGeometry relative="1" as="geometry">
            <mxPoint x="-636.1538461538462" y="1175" as="sourcePoint" />
            <mxPoint x="-1269" y="820" as="targetPoint" />
            <Array as="points">
              <mxPoint x="-990" y="337" />
              <mxPoint x="-990" y="1150" />
              <mxPoint x="-690" y="1150" />
            </Array>
          </mxGeometry>
        </mxCell>
        <mxCell id="Z55XJMEU9uU-6QPWOgbq-135" style="rounded=1;orthogonalLoop=1;jettySize=auto;html=1;dashed=1;fillColor=#d5e8d4;strokeColor=#82b366;edgeStyle=orthogonalEdgeStyle;" parent="1" source="Z55XJMEU9uU-6QPWOgbq-125" target="Z55XJMEU9uU-6QPWOgbq-49" edge="1">
          <mxGeometry relative="1" as="geometry">
            <mxPoint x="-1473.75" y="755.5" as="sourcePoint" />
            <mxPoint x="-1518.75" y="755.5" as="targetPoint" />
          </mxGeometry>
        </mxCell>
        <mxCell id="Z55XJMEU9uU-6QPWOgbq-136" value="TemporalObject" style="text;html=1;align=center;verticalAlign=middle;whiteSpace=wrap;rounded=1;fillColor=#b1ddf0;strokeColor=#10739e;" parent="1" vertex="1">
          <mxGeometry x="-670" y="1020" width="100" height="30" as="geometry" />
        </mxCell>
        <mxCell id="Z55XJMEU9uU-6QPWOgbq-138" style="rounded=1;orthogonalLoop=1;jettySize=auto;html=1;fillColor=#b1ddf0;strokeColor=#10739e;" parent="1" source="BPb5hYeniMufHD9t9Q5h-92" target="Z55XJMEU9uU-6QPWOgbq-136" edge="1">
          <mxGeometry relative="1" as="geometry">
            <mxPoint x="-520" y="970" as="sourcePoint" />
            <mxPoint x="-520" y="780" as="targetPoint" />
          </mxGeometry>
        </mxCell>
        <mxCell id="Z55XJMEU9uU-6QPWOgbq-139" style="rounded=1;orthogonalLoop=1;jettySize=auto;html=1;fillColor=#d5e8d4;strokeColor=#82b366;edgeStyle=orthogonalEdgeStyle;" parent="1" source="Z55XJMEU9uU-6QPWOgbq-44" target="Z55XJMEU9uU-6QPWOgbq-126" edge="1">
          <mxGeometry relative="1" as="geometry">
            <mxPoint x="-590" y="1161.3636363636365" as="sourcePoint" />
            <mxPoint x="-741" y="1057" as="targetPoint" />
            <Array as="points">
              <mxPoint x="-990" y="337" />
              <mxPoint x="-990" y="1150" />
            </Array>
          </mxGeometry>
        </mxCell>
        <mxCell id="Z55XJMEU9uU-6QPWOgbq-140" value="Rgba" style="text;html=1;align=center;verticalAlign=middle;whiteSpace=wrap;rounded=1;fillColor=#b1ddf0;strokeColor=#10739e;" parent="1" vertex="1">
          <mxGeometry x="-430" y="1120" width="60" height="30" as="geometry" />
        </mxCell>
        <mxCell id="Z55XJMEU9uU-6QPWOgbq-141" style="rounded=1;orthogonalLoop=1;jettySize=auto;html=1;dashed=1;fillColor=#b1ddf0;strokeColor=#10739e;" parent="1" source="Z55XJMEU9uU-6QPWOgbq-126" target="Z55XJMEU9uU-6QPWOgbq-140" edge="1">
          <mxGeometry relative="1" as="geometry">
            <mxPoint x="-390" y="1050" as="sourcePoint" />
            <mxPoint x="-504" y="1050" as="targetPoint" />
          </mxGeometry>
        </mxCell>
        <mxCell id="Z55XJMEU9uU-6QPWOgbq-142" value="Rect2d" style="text;html=1;align=center;verticalAlign=middle;whiteSpace=wrap;rounded=1;fillColor=#b1ddf0;strokeColor=#10739e;" parent="1" vertex="1">
          <mxGeometry x="-430" y="1160" width="60" height="30" as="geometry" />
        </mxCell>
        <mxCell id="Z55XJMEU9uU-6QPWOgbq-143" value="Point3d" style="text;html=1;align=center;verticalAlign=middle;whiteSpace=wrap;rounded=1;fillColor=#b1ddf0;strokeColor=#10739e;" parent="1" vertex="1">
          <mxGeometry x="-430" y="1080" width="60" height="30" as="geometry" />
        </mxCell>
        <mxCell id="Z55XJMEU9uU-6QPWOgbq-144" style="rounded=1;orthogonalLoop=1;jettySize=auto;html=1;dashed=1;fillColor=#b1ddf0;strokeColor=#10739e;" parent="1" source="Z55XJMEU9uU-6QPWOgbq-126" target="Z55XJMEU9uU-6QPWOgbq-142" edge="1">
          <mxGeometry relative="1" as="geometry">
            <mxPoint x="-476" y="1080" as="sourcePoint" />
            <mxPoint x="-414" y="1120" as="targetPoint" />
          </mxGeometry>
        </mxCell>
        <mxCell id="Z55XJMEU9uU-6QPWOgbq-145" style="rounded=1;orthogonalLoop=1;jettySize=auto;html=1;dashed=1;fillColor=#b1ddf0;strokeColor=#10739e;" parent="1" source="Z55XJMEU9uU-6QPWOgbq-126" target="Z55XJMEU9uU-6QPWOgbq-143" edge="1">
          <mxGeometry relative="1" as="geometry">
            <mxPoint x="-486" y="1080" as="sourcePoint" />
            <mxPoint x="-404" y="1170" as="targetPoint" />
          </mxGeometry>
        </mxCell>
        <mxCell id="Z55XJMEU9uU-6QPWOgbq-146" value="Point4d" style="text;html=1;align=center;verticalAlign=middle;whiteSpace=wrap;rounded=1;fillColor=#b1ddf0;strokeColor=#10739e;" parent="1" vertex="1">
          <mxGeometry x="-430" y="1280" width="60" height="30" as="geometry" />
        </mxCell>
        <mxCell id="Z55XJMEU9uU-6QPWOgbq-147" style="rounded=1;orthogonalLoop=1;jettySize=auto;html=1;dashed=1;fillColor=#b1ddf0;strokeColor=#10739e;" parent="1" source="Z55XJMEU9uU-6QPWOgbq-126" target="Z55XJMEU9uU-6QPWOgbq-146" edge="1">
          <mxGeometry relative="1" as="geometry">
            <mxPoint x="-490" y="1080" as="sourcePoint" />
            <mxPoint x="-400" y="1220" as="targetPoint" />
          </mxGeometry>
        </mxCell>
        <mxCell id="Z55XJMEU9uU-6QPWOgbq-148" value="Point3i" style="text;html=1;align=center;verticalAlign=middle;whiteSpace=wrap;rounded=1;fillColor=#b1ddf0;strokeColor=#10739e;" parent="1" vertex="1">
          <mxGeometry x="-430" y="1200" width="60" height="30" as="geometry" />
        </mxCell>
        <mxCell id="Z55XJMEU9uU-6QPWOgbq-149" style="rounded=1;orthogonalLoop=1;jettySize=auto;html=1;dashed=1;fillColor=#b1ddf0;strokeColor=#10739e;" parent="1" source="Z55XJMEU9uU-6QPWOgbq-126" target="Z55XJMEU9uU-6QPWOgbq-148" edge="1">
          <mxGeometry relative="1" as="geometry">
            <mxPoint x="-490" y="1080" as="sourcePoint" />
            <mxPoint x="-400" y="1220" as="targetPoint" />
          </mxGeometry>
        </mxCell>
        <mxCell id="Z55XJMEU9uU-6QPWOgbq-150" value="Point2d" style="text;html=1;align=center;verticalAlign=middle;whiteSpace=wrap;rounded=1;fillColor=#b1ddf0;strokeColor=#10739e;" parent="1" vertex="1">
          <mxGeometry x="-430" y="1240" width="60" height="30" as="geometry" />
        </mxCell>
        <mxCell id="Z55XJMEU9uU-6QPWOgbq-151" style="rounded=1;orthogonalLoop=1;jettySize=auto;html=1;dashed=1;fillColor=#b1ddf0;strokeColor=#10739e;" parent="1" source="Z55XJMEU9uU-6QPWOgbq-126" target="Z55XJMEU9uU-6QPWOgbq-150" edge="1">
          <mxGeometry relative="1" as="geometry">
            <mxPoint x="-493" y="1080" as="sourcePoint" />
            <mxPoint x="-397" y="1300" as="targetPoint" />
          </mxGeometry>
        </mxCell>
        <mxCell id="Z55XJMEU9uU-6QPWOgbq-152" style="rounded=1;orthogonalLoop=1;jettySize=auto;html=1;fillColor=#d5e8d4;strokeColor=#82b366;edgeStyle=orthogonalEdgeStyle;" parent="1" source="Z55XJMEU9uU-6QPWOgbq-44" target="BPb5hYeniMufHD9t9Q5h-92" edge="1">
          <mxGeometry relative="1" as="geometry">
            <mxPoint x="-580" y="1180" as="sourcePoint" />
            <mxPoint x="-696" y="1060" as="targetPoint" />
            <Array as="points">
              <mxPoint x="-990" y="337" />
              <mxPoint x="-990" y="1150" />
              <mxPoint x="-620" y="1150" />
            </Array>
          </mxGeometry>
        </mxCell>
        <mxCell id="Z55XJMEU9uU-6QPWOgbq-153" value="Matrix4" style="text;html=1;align=center;verticalAlign=middle;whiteSpace=wrap;rounded=1;fillColor=#b1ddf0;strokeColor=#10739e;" parent="1" vertex="1">
          <mxGeometry x="-540" y="1280" width="60" height="30" as="geometry" />
        </mxCell>
        <mxCell id="Z55XJMEU9uU-6QPWOgbq-154" style="rounded=1;orthogonalLoop=1;jettySize=auto;html=1;dashed=1;fillColor=#b1ddf0;strokeColor=#10739e;" parent="1" source="Z55XJMEU9uU-6QPWOgbq-126" target="Z55XJMEU9uU-6QPWOgbq-153" edge="1">
          <mxGeometry relative="1" as="geometry">
            <mxPoint x="-494" y="1080" as="sourcePoint" />
            <mxPoint x="-396" y="1340" as="targetPoint" />
          </mxGeometry>
        </mxCell>
        <mxCell id="Z55XJMEU9uU-6QPWOgbq-155" value="Bitmap" style="text;html=1;align=center;verticalAlign=middle;whiteSpace=wrap;rounded=1;fillColor=#b1ddf0;strokeColor=#10739e;" parent="1" vertex="1">
          <mxGeometry x="-641.25" y="1210" width="60" height="30" as="geometry" />
        </mxCell>
        <mxCell id="Z55XJMEU9uU-6QPWOgbq-156" value="Font" style="text;html=1;align=center;verticalAlign=middle;whiteSpace=wrap;rounded=1;fillColor=#b1ddf0;strokeColor=#10739e;" parent="1" vertex="1">
          <mxGeometry x="-641.25" y="1260" width="60" height="30" as="geometry" />
        </mxCell>
        <mxCell id="Z55XJMEU9uU-6QPWOgbq-157" style="rounded=1;orthogonalLoop=1;jettySize=auto;html=1;fillColor=#b1ddf0;strokeColor=#10739e;" parent="1" source="Z55XJMEU9uU-6QPWOgbq-155" target="Z55XJMEU9uU-6QPWOgbq-156" edge="1">
          <mxGeometry relative="1" as="geometry">
            <mxPoint x="-490.25" y="1000" as="sourcePoint" />
            <mxPoint x="-631.25" y="1170" as="targetPoint" />
          </mxGeometry>
        </mxCell>
        <mxCell id="Z55XJMEU9uU-6QPWOgbq-159" value="Chart2d" style="text;html=1;align=center;verticalAlign=middle;whiteSpace=wrap;rounded=1;fillColor=#b1ddf0;strokeColor=#10739e;" parent="1" vertex="1">
          <mxGeometry x="-335" y="1140" width="60" height="30" as="geometry" />
        </mxCell>
        <mxCell id="Z55XJMEU9uU-6QPWOgbq-160" style="rounded=1;orthogonalLoop=1;jettySize=auto;html=1;dashed=1;fillColor=#b1ddf0;strokeColor=#10739e;" parent="1" source="Z55XJMEU9uU-6QPWOgbq-142" target="Z55XJMEU9uU-6QPWOgbq-159" edge="1">
          <mxGeometry relative="1" as="geometry">
            <mxPoint x="-486" y="1125" as="sourcePoint" />
            <mxPoint x="-404" y="1215" as="targetPoint" />
          </mxGeometry>
        </mxCell>
        <mxCell id="Z55XJMEU9uU-6QPWOgbq-161" style="rounded=1;orthogonalLoop=1;jettySize=auto;html=1;dashed=1;fillColor=#b1ddf0;strokeColor=#10739e;" parent="1" source="Z55XJMEU9uU-6QPWOgbq-140" target="Z55XJMEU9uU-6QPWOgbq-159" edge="1">
          <mxGeometry relative="1" as="geometry">
            <mxPoint x="-360" y="1232" as="sourcePoint" />
            <mxPoint x="-260" y="1238" as="targetPoint" />
          </mxGeometry>
        </mxCell>
        <mxCell id="Z55XJMEU9uU-6QPWOgbq-162" style="rounded=1;orthogonalLoop=1;jettySize=auto;html=1;fillColor=#b1ddf0;strokeColor=#10739e;" parent="1" source="Z55XJMEU9uU-6QPWOgbq-136" target="Z55XJMEU9uU-6QPWOgbq-17" edge="1">
          <mxGeometry relative="1" as="geometry">
            <mxPoint x="-695" y="1030" as="sourcePoint" />
            <mxPoint x="-672" y="1000" as="targetPoint" />
          </mxGeometry>
        </mxCell>
        <mxCell id="Z55XJMEU9uU-6QPWOgbq-163" value="Box3d" style="text;html=1;align=center;verticalAlign=middle;whiteSpace=wrap;rounded=1;fillColor=#b1ddf0;strokeColor=#10739e;" parent="1" vertex="1">
          <mxGeometry x="-335" y="1100" width="60" height="30" as="geometry" />
        </mxCell>
        <mxCell id="Z55XJMEU9uU-6QPWOgbq-164" style="rounded=1;orthogonalLoop=1;jettySize=auto;html=1;dashed=1;fillColor=#b1ddf0;strokeColor=#10739e;" parent="1" source="Z55XJMEU9uU-6QPWOgbq-143" target="Z55XJMEU9uU-6QPWOgbq-163" edge="1">
          <mxGeometry relative="1" as="geometry">
            <mxPoint x="-360" y="1223" as="sourcePoint" />
            <mxPoint x="-300" y="1208" as="targetPoint" />
          </mxGeometry>
        </mxCell>
        <mxCell id="Z55XJMEU9uU-6QPWOgbq-165" style="rounded=1;orthogonalLoop=1;jettySize=auto;html=1;fillColor=#d5e8d4;strokeColor=#82b366;edgeStyle=orthogonalEdgeStyle;" parent="1" source="Z55XJMEU9uU-6QPWOgbq-44" target="Z55XJMEU9uU-6QPWOgbq-155" edge="1">
          <mxGeometry relative="1" as="geometry">
            <mxPoint x="-620" y="1175" as="sourcePoint" />
            <mxPoint x="-650" y="1185" as="targetPoint" />
            <Array as="points">
              <mxPoint x="-990" y="337" />
              <mxPoint x="-990" y="1150" />
              <mxPoint x="-620" y="1150" />
            </Array>
          </mxGeometry>
        </mxCell>
        <mxCell id="Z55XJMEU9uU-6QPWOgbq-166" style="rounded=1;orthogonalLoop=1;jettySize=auto;html=1;dashed=1;fillColor=#b1ddf0;strokeColor=#10739e;" parent="1" source="Z55XJMEU9uU-6QPWOgbq-143" target="BPb5hYeniMufHD9t9Q5h-92" edge="1">
          <mxGeometry relative="1" as="geometry">
            <mxPoint x="-470" y="1173" as="sourcePoint" />
            <mxPoint x="-420" y="1152" as="targetPoint" />
          </mxGeometry>
        </mxCell>
        <mxCell id="Z55XJMEU9uU-6QPWOgbq-167" value="Points3d" style="text;html=1;align=center;verticalAlign=middle;whiteSpace=wrap;rounded=1;fillColor=#b1ddf0;strokeColor=#10739e;" parent="1" vertex="1">
          <mxGeometry x="-335" y="1060" width="60" height="30" as="geometry" />
        </mxCell>
        <mxCell id="Z55XJMEU9uU-6QPWOgbq-168" style="rounded=1;orthogonalLoop=1;jettySize=auto;html=1;dashed=1;fillColor=#b1ddf0;strokeColor=#10739e;" parent="1" source="Z55XJMEU9uU-6QPWOgbq-143" target="Z55XJMEU9uU-6QPWOgbq-167" edge="1">
          <mxGeometry relative="1" as="geometry">
            <mxPoint x="-360" y="1140" as="sourcePoint" />
            <mxPoint x="-300" y="1140" as="targetPoint" />
          </mxGeometry>
        </mxCell>
        <mxCell id="Z55XJMEU9uU-6QPWOgbq-175" value="" style="rounded=1;orthogonalLoop=1;jettySize=auto;html=1;fillColor=#f8cecc;strokeColor=#b85450;" parent="1" source="BPb5hYeniMufHD9t9Q5h-32" target="BPb5hYeniMufHD9t9Q5h-69" edge="1">
          <mxGeometry relative="1" as="geometry">
            <mxPoint x="-365" y="434" as="sourcePoint" />
            <mxPoint x="-213" y="378" as="targetPoint" />
            <Array as="points" />
          </mxGeometry>
        </mxCell>
        <mxCell id="BPb5hYeniMufHD9t9Q5h-69" value="NerveList" style="text;html=1;align=center;verticalAlign=middle;whiteSpace=wrap;rounded=1;fillColor=#f8cecc;strokeColor=#b85450;" parent="1" vertex="1">
          <mxGeometry x="-340" y="380" width="70" height="30" as="geometry" />
        </mxCell>
        <mxCell id="BPb5hYeniMufHD9t9Q5h-51" value="Io" style="text;html=1;align=center;verticalAlign=middle;whiteSpace=wrap;rounded=1;fillColor=#f8cecc;strokeColor=#b85450;" parent="1" vertex="1">
          <mxGeometry x="-130" y="380" width="30" height="30" as="geometry" />
        </mxCell>
        <mxCell id="kJ4DCKbuc3_jq56GlPs5-2" style="rounded=1;orthogonalLoop=1;jettySize=auto;html=1;fillColor=#f8cecc;strokeColor=#b85450;" parent="1" source="BPb5hYeniMufHD9t9Q5h-32" target="BPb5hYeniMufHD9t9Q5h-27" edge="1">
          <mxGeometry relative="1" as="geometry">
            <mxPoint x="-386" y="470" as="sourcePoint" />
            <mxPoint x="-392" y="595" as="targetPoint" />
            <Array as="points" />
          </mxGeometry>
        </mxCell>
        <mxCell id="U8qTREsfkG7W-p3h-8p6-2" value="WeightsExchange" style="text;html=1;align=center;verticalAlign=middle;whiteSpace=wrap;rounded=1;fillColor=#e1d5e7;strokeColor=#9673a6;" vertex="1" parent="1">
          <mxGeometry x="-160" y="585" width="120" height="30" as="geometry" />
        </mxCell>
        <mxCell id="U8qTREsfkG7W-p3h-8p6-3" style="rounded=1;orthogonalLoop=1;jettySize=auto;html=1;dashed=1;fillColor=#e1d5e7;strokeColor=#9673a6;" edge="1" parent="1" source="BPb5hYeniMufHD9t9Q5h-36" target="U8qTREsfkG7W-p3h-8p6-2">
          <mxGeometry relative="1" as="geometry">
            <mxPoint x="-60" y="535" as="sourcePoint" />
            <mxPoint x="-110" y="450" as="targetPoint" />
          </mxGeometry>
        </mxCell>
      </root>
    </mxGraphModel>
  </diagram>
</mxfile>
